<svg t="1585551134724" class="icon" viewBox="0 0 1024 1024" version="1.1" xmlns="http://www.w3.org/2000/svg" p-id="5098" width="200" height="200"><path d="M182 806.1c-23.6 0-42.7 19.1-42.7 42.7s19.1 42.7 42.7 42.7h511.9c23.6 0 42.7-19.1 42.7-42.7s-19.1-42.7-42.7-42.7H182z" p-id="5099"></path><path d="M981.4 43.1c-0.1 0-0.1 0 0 0-23.6 0-42.7 19.1-42.7 42.7l-0.2 554.2c-0.1 164.6-134 298.5-298.6 298.5H170.6c-47.1 0-85.3-38.3-85.3-85.3s38.3-85.3 85.3-85.3h469.2c117.6 0 213.3-95.7 213.3-213.3V213.4C853.1 95.8 757.4 0.1 639.8 0.1H213.3C95.7 0.1 0 95.8 0 213.4v639.8c0 94.1 76.5 170.6 170.6 170.6h469.3c211.6 0 383.8-172.2 383.9-383.8l0.2-554.3c0-23.5-19.1-42.6-42.6-42.6zM85.3 213.4c0-70.6 57.4-128 128-128h426.6c70.6 0 128 57.4 128 128v341.2c0 70.6-57.4 128-128 128H170.6c-31.1 0-60.2 8.3-85.3 22.9V213.4z" p-id="5100"></path></svg>