<svg t="1586159857098" class="icon" viewBox="0 0 1024 1024" version="1.1" xmlns="http://www.w3.org/2000/svg" p-id="4541" width="200" height="200"><path d="M852.9 0H171.1C77 0 0.7 76.3 0.7 170.4v683.1C0.7 947.7 77 1024 171.1 1024h681.7c94.1 0 170.4-76.3 170.4-170.4V170.5C1023.3 76.3 947 0 852.9 0z m85.2 853.6c0 47-38.2 85.2-85.2 85.2H171.1c-47 0-85.2-38.2-85.2-85.2V512.7h852.2v340.9zM85.9 170.4c0-47 38.2-85.2 85.2-85.2h681.7c47 0 85.2 38.2 85.2 85.2v255.7H85.9V170.4z" p-id="4542"></path><path d="M214.5 170.4c-23.5 0-42.6 19.1-42.6 42.6v85.2c0 23.6 19.1 42.6 42.6 42.6s42.6-19.1 42.6-42.6V213c0-23.5-19.1-42.6-42.6-42.6zM214.5 810.9c23.5 0 42.6-19.1 42.6-42.6v-85.2c0-23.6-19.1-42.6-42.6-42.6s-42.6 19.1-42.6 42.6v85.2c0 23.6 19.1 42.6 42.6 42.6z" p-id="4543"></path></svg>