<svg t="1585370503984" class="icon" viewBox="0 0 1024 1024" version="1.1" xmlns="http://www.w3.org/2000/svg" p-id="678" width="200" height="200"><path d="M520 0C288.6 0 42.7 83.2 42.7 237.2v538C42.7 931 285.4 1024 520 1024c258.7 0 461.3-109.2 461.3-248.8v-538C981.3 99.8 787.3 0 520 0z m0 85.3c224.9 0 376 78.5 376 151.9C896 318 731.8 412 520 412c-217.2 0-392-95.6-392-174.8 0-71.8 161-151.9 392-151.9z m376 689.9c0 77.3-154.4 163.4-376 163.4-220.8 0-392-87.8-392-163.4V641.1C215.1 709.3 359.9 755 520 755c154.9 0 292.2-43.3 376-109.6v129.8zM520 669.6c-217.2 0-392-95.6-392-174.8V383.4c87.1 68.3 231.8 114 392 114 155.1 0 292.3-43.5 376-109.9v107.3c0 80.8-164.2 174.8-376 174.8z" p-id="679"></path></svg>