<svg t="1585618900987" class="icon" viewBox="0 0 1024 1024" version="1.1" xmlns="http://www.w3.org/2000/svg" p-id="4848" width="200" height="200"><path d="M968.1 327c66.6-66.7 66.6-174.7 0-241.4-33.3-33.3-77-50-120.7-50s-87.4 16.7-120.7 50L304.4 508l-30.2 271.5 271.5-30.2L968.1 327zM370.8 683l15.1-135.8L787.1 146c16.1-16.1 37.5-25 60.3-25 22.8 0 44.2 8.9 60.3 25 33.3 33.3 33.3 87.4 0 120.7L506.6 667.9 370.8 683zM981.3 903H42.7C19.1 903 0 922.1 0 945.7s19.1 42.7 42.7 42.7h938.7c23.6 0 42.7-19.1 42.7-42.7s-19.2-42.7-42.8-42.7z" p-id="4849"></path></svg>