<svg t="1585617774435" class="icon" viewBox="0 0 1024 1024" version="1.1" xmlns="http://www.w3.org/2000/svg" p-id="4566" width="200" height="200"><path d="M896 0.3H384c-70.6 0-128 57.4-128 128v42.1H128c-70.6 0-128 57.4-128 128v597.3c0 70.6 57.4 128 128 128h512c70.6 0 128-57.4 128-128v-42.1h128c70.6 0 128-57.4 128-128V128.3c0-70.6-57.4-128-128-128zM682.7 895.7c0 23.5-19.1 42.7-42.7 42.7H128c-23.5 0-42.7-19.1-42.7-42.7V298.4c0-23.5 19.1-42.7 42.7-42.7h512c23.5 0 42.7 19.1 42.7 42.7v597.3z m256-170.1c0 23.5-19.1 42.7-42.7 42.7H768V298.4c0-70.6-57.4-128-128-128H341.3v-42.1c0-23.5 19.1-42.7 42.7-42.7h512c23.5 0 42.7 19.1 42.7 42.7v597.3z" p-id="4567"></path><path d="M236.8 548.8h170.7c23.6 0 42.7-19.1 42.7-42.7s-19.1-42.7-42.7-42.7H236.8c-23.6 0-42.7 19.1-42.7 42.7s19.1 42.7 42.7 42.7zM492.8 698.8h-256c-23.6 0-42.7 19.1-42.7 42.7s19.1 42.7 42.7 42.7h256c23.6 0 42.7-19.1 42.7-42.7s-19.1-42.7-42.7-42.7z" p-id="4568"></path></svg>