<svg t="1585539427258" class="icon" viewBox="0 0 1024 1024" version="1.1" xmlns="http://www.w3.org/2000/svg" p-id="4533" width="200" height="200"><path d="M1020.100381 451.555903c-1.599844-13.598672-9.599063-25.49751-21.597891-32.196856-86.491554-48.295284-106.38961-95.690655-78.992286-187.881652 3.999609-13.398692 1.099893-27.797285-7.599258-38.796212-23.897666-29.89708-51.09501-57.094424-80.79211-80.79211-10.998926-8.69915-25.49751-11.498877-38.796211-7.499267-92.190997 27.397324-139.586369 7.399277-187.881652-78.992286-6.699346-11.998828-18.598184-19.998047-32.196856-21.597891-43.195782-5.099502-77.192462-5.099502-120.788204 0-13.598672 1.599844-25.49751 9.599063-32.196856 21.597891-48.195293 86.491554-95.690655 106.38961-187.881652 78.992286-13.198711-3.899619-27.797285-1.199883-38.796212 7.599258-29.79709 23.897666-56.994434 50.99502-80.69212 80.692119-8.69915 10.898936-11.498877 25.39752-7.599258 38.796212 27.397324 92.190997 7.399277 139.586369-78.992285 187.881652-11.998828 6.699346-19.998047 18.698174-21.597891 32.296846C1.199883 473.753735 0 493.451811 0 511.950005s1.199883 38.19627 3.799629 60.194122c1.599844 13.598672 9.599063 25.5975 21.597891 32.296846 86.491554 48.295284 106.38961 95.690655 78.992286 187.881652-3.999609 13.398692-1.099893 27.797285 7.599258 38.796211 23.797676 29.79709 50.99502 56.994434 80.79211 80.79211 10.898936 8.69915 25.39752 11.498877 38.796211 7.599258 92.190997-27.397324 139.586369-7.399277 187.881652 79.092276 6.699346 11.998828 18.698174 19.998047 32.296846 21.597891 22.097842 2.599746 41.795918 3.799629 60.294112 3.799629s38.19627-1.299873 60.294112-3.799629c13.598672-1.599844 25.5975-9.599063 32.296846-21.597891 48.295284-86.491554 95.690655-106.489601 187.881652-79.092276 13.198711 3.899619 27.797285 1.099893 38.796212-7.499268 29.6971-23.697686 56.794454-50.89503 80.79211-80.79211 8.69915-10.898936 11.498877-25.39752 7.599258-38.796211-27.397324-92.190997-7.399277-139.586369 78.992285-187.881652 11.998828-6.699346 19.998047-18.598184 21.597891-32.196856 2.599746-21.697881 3.799629-41.395957 3.799629-60.294112-0.19998-19.098135-1.399863-38.796211-3.999609-60.494092z m-82.691925 89.991212c-98.990333 61.993946-132.187091 141.186212-105.789669 252.475344-11.798848 13.298701-24.297627 25.797481-37.496338 37.496338-111.189142-26.397422-190.481398 6.799336-252.475344 105.789669-21.09794 1.599844-38.39625 1.699834-59.19422 0-61.993946-98.990333-141.286203-132.287081-252.475344-105.789669-13.198711-11.698858-25.797481-24.197637-37.496338-37.496338 26.397422-111.289132-6.799336-190.481398-105.789669-252.475344-0.799922-10.498975-1.199883-20.298018-1.199883-29.59711s0.399961-19.098135 1.199883-29.59711c98.990333-61.993946 132.187091-141.186212 105.789669-252.475344 11.698858-13.198711 24.197637-25.797481 37.496338-37.496338 111.289132 26.397422 190.481398-6.799336 252.475344-105.789669 20.797969-1.699834 38.496241-1.699834 59.19422 0 61.993946 98.990333 141.186212 131.987111 252.475344 105.789669 13.198711 11.698858 25.797481 24.197637 37.496338 37.496338-26.397422 111.289132 6.799336 190.481398 105.789669 252.475344 0.799922 10.398984 1.199883 20.198028 1.199883 29.59711 0 9.499072-0.399961 19.298115-1.199883 29.59711z" p-id="4534"></path><path d="M511.950005 298.670833c-117.588517 0-213.279172 95.690655-213.279172 213.279172S394.361488 725.229177 511.950005 725.229177 725.229177 629.538522 725.229177 511.950005 629.538522 298.670833 511.950005 298.670833z m0 341.266673c-70.593106 0-127.987501-57.394395-127.987501-127.987501s57.394395-127.987501 127.987501-127.987501 127.987501 57.394395 127.987501 127.987501-57.394395 127.987501-127.987501 127.987501z" p-id="4535"></path></svg>