<svg t="1585539681310" class="icon" viewBox="0 0 1024 1024" version="1.1" xmlns="http://www.w3.org/2000/svg" p-id="4817" width="200" height="200"><path d="M884 0H310.6c-77.2 0-139.9 62-139.9 138.3V768h-128C19.1 768 0 787.1 0 810.7 0 928.3 88.2 1024 196.7 1024h637v-0.7c105.5-3.7 190.4-97.4 190.4-212.6V138.3C1024 62 961.2 0 884 0zM92.2 853.3h542.4c6 31.7 19 60.4 36.4 85.3H196.7c-48.3 0.1-89.2-35.7-104.5-85.3z m735.1 85.4c-61.4 0-111.3-57.3-111.4-127.8v-0.2c0-23.6-19.1-42.7-42.7-42.7H256V138.3c0-29.2 24.5-53 54.6-53H884c30.1 0 54.6 23.8 54.6 53v672.4c0.1 70.5-49.9 128-111.3 128z" p-id="4818"></path><path d="M387.9 303.2h-6c-22.2 0-40.1 18-40.1 40.1v6.1c0 22.2 18 40.1 40.1 40.1h6c22.2 0 40.1-18 40.1-40.1v-6.1c0-22.1-18-40.1-40.1-40.1zM387.9 544.7h-6c-22.2 0-40.1 18-40.1 40.1v6.1c0 22.2 18 40.1 40.1 40.1h6c22.2 0 40.1-18 40.1-40.1v-6.1c0-22.1-18-40.1-40.1-40.1zM815.6 303.2H574.3c-23.6 0-42.7 19.1-42.7 42.7v1c0 23.6 19.1 42.7 42.7 42.7h241.3c23.6 0 42.7-19.1 42.7-42.7v-1c-0.1-23.6-19.2-42.7-42.7-42.7zM815.6 544.7H574.3c-23.6 0-42.7 19.1-42.7 42.7v1c0 23.6 19.1 42.7 42.7 42.7h241.3c23.6 0 42.7-19.1 42.7-42.7v-1c-0.1-23.6-19.2-42.7-42.7-42.7z" p-id="4819"></path></svg>